<?xml version="1.0" standalone="no"?>
<!DOCTYPE svg PUBLIC "-//W3C//DTD SVG 20010904//EN"
 "http://www.w3.org/TR/2001/REC-SVG-20010904/DTD/svg10.dtd">
<svg version="1.0" xmlns="http://www.w3.org/2000/svg"
 width="274.000000pt" height="274.000000pt" viewBox="0 0 274.000000 274.000000"
 preserveAspectRatio="xMidYMid meet">
<metadata>
Created by potrace 1.14, written by Peter Selinger 2001-2017
</metadata>
<g transform="translate(0.000000,274.000000) scale(0.100000,-0.100000)"
fill="#000000" stroke="none">
<path d="M1200 2370 c-113 -23 -188 -50 -285 -100 -106 -56 -174 -107 -269
-204 -199 -203 -300 -464 -291 -751 4 -94 26 -230 45 -265 6 -11 9 -20 6 -20
-7 0 48 -130 79 -186 57 -104 161 -225 260 -304 77 -62 110 -81 276 -161 9 -4
36 -13 60 -20 24 -7 49 -14 54 -15 137 -40 356 -40 509 0 129 33 269 101 375
181 16 12 177 172 196 195 23 28 69 105 106 175 50 97 80 197 96 315 13 90 3
345 -14 373 -2 4 -7 19 -9 34 -8 44 -71 198 -99 244 -42 68 -79 122 -95 139
-8 9 -27 30 -41 46 -52 59 -136 129 -216 181 -46 29 -87 53 -91 53 -5 0 -27 9
-49 20 -60 29 -173 64 -243 77 -78 13 -280 9 -360 -7z"/>
</g>
</svg>
